<svg width="40" height="39" viewBox="0 0 40 39" fill="none" xmlns="http://www.w3.org/2000/svg">
<path d="M13.8258 14.35L11.8258 21.6L18.0258 25.85L20.0258 18.6L13.8258 14.35ZM34.2758 2.90003L37.5758 4.25003C38.6481 4.7177 39.3745 5.51786 39.7548 6.65053C40.1355 7.78353 40.0258 8.90003 39.4258 10L34.2758 22.25L34.2758 2.90003ZM27.1758 2.88192e-05C28.3035 2.89178e-05 29.2686 0.400029 30.0713 1.20003C30.8743 2.00003 31.2758 2.9667 31.2758 4.10003L31.2758 19.75L24.4258 1.35003C24.3258 1.08336 24.2175 0.850029 24.1008 0.650029C23.9841 0.450029 23.8258 0.233362 23.6258 2.85088e-05L27.1758 2.88192e-05ZM18.0258 1.25003C18.7925 0.983361 19.558 1.02003 20.3223 1.36003C21.0866 1.70036 21.6045 2.24703 21.8758 3.00003L31.4758 29.1C31.7425 29.8667 31.7018 30.6314 31.3538 31.394C31.0058 32.1564 30.4465 32.675 29.6758 32.95L13.7258 38.7C12.9591 38.9667 12.1841 38.9334 11.4008 38.6C10.6175 38.2667 10.0925 37.7167 9.82579 36.95L0.175795 10.9C-0.0908713 10.1334 -0.054204 9.36886 0.285796 8.60653C0.62613 7.84386 1.1728 7.32503 1.9258 7.05003L18.0258 1.25003ZM19.0258 4.10003L3.1258 9.90003L12.6758 35.85L28.5758 30.1L19.0258 4.10003Z" fill="black"/>
</svg>
