<svg width="40" height="40" viewBox="0 0 40 40" fill="none" xmlns="http://www.w3.org/2000/svg">
<path d="M9.25 38.8895C8.55 38.1825 8.2 37.3325 8.2 36.3395C8.2 35.3465 8.5535 34.5 9.2605 33.8C9.9675 33.1 10.8175 32.75 11.8105 32.75C12.8035 32.75 13.65 33.1035 14.35 33.8105C15.05 34.5175 15.4 35.3675 15.4 36.3605C15.4 37.3535 15.0465 38.2 14.3395 38.9C13.6325 39.6 12.7825 39.95 11.7895 39.95C10.7965 39.95 9.95 39.5965 9.25 38.8895ZM29.25 38.8895C28.55 38.1825 28.2 37.3325 28.2 36.3395C28.2 35.3465 28.5535 34.5 29.2605 33.8C29.9675 33.1 30.8175 32.75 31.8105 32.75C32.8035 32.75 33.65 33.1035 34.35 33.8105C35.05 34.5175 35.4 35.3675 35.4 36.3605C35.4 37.3535 35.0465 38.2 34.3395 38.9C33.6325 39.6 32.7825 39.95 31.7895 39.95C30.7965 39.95 29.95 39.5965 29.25 38.8895ZM9.2 6.95L14.7 18.35H29.1L35.35 6.95H9.2ZM7.7 3.95H37.1535C37.9192 3.95 38.5017 4.3 38.901 5C39.3003 5.7 39.3 6.4 38.9 7.1L32.15 19.25C31.7833 19.8833 31.3073 20.3917 30.722 20.775C30.1367 21.1583 29.496 21.35 28.8 21.35H13.65L10.85 26.55H35.4V29.55H11.3C9.9 29.55 8.89167 29.0833 8.275 28.15C7.65833 27.2167 7.66667 26.1667 8.3 25L11.5 19.1L3.9 3H0V0H5.85L7.7 3.95Z" fill="black"/>
</svg>
