<svg width="40" height="40" viewBox="0 0 40 40" fill="none" xmlns="http://www.w3.org/2000/svg">
<path d="M25.95 19.55L23.8 17.4L32.95 5.8H12.2L9.2 2.8H35.55C36.25 2.8 36.7667 3.11667 37.1 3.75C37.4333 4.38333 37.3667 4.98333 36.9 5.55L25.95 19.55ZM37.6 39.75L24.95 27.1V32.8C24.95 33.3667 24.7583 33.8417 24.375 34.225C23.9917 34.6083 23.5167 34.8 22.95 34.8H18.95C18.3833 34.8 17.9083 34.6083 17.525 34.225C17.1417 33.8417 16.95 33.3667 16.95 32.8V19.1L0 2.15L2.15 0L39.75 37.6L37.6 39.75Z" fill="black"/>
</svg>
