<svg width="24" height="34" viewBox="0 0 24 34" fill="none" xmlns="http://www.w3.org/2000/svg">
<path d="M11.6046 10.976L7.21292 17.0814L11.5528 23.2188L15.9444 17.1134L11.6046 10.976ZM20.0896 0.147556C20.9011 0.163513 21.6063 0.463547 22.2052 1.04766C22.8039 1.63209 23.0999 2.32448 23.093 3.12485L23.0391 30.9343C23.0232 31.7459 22.7197 32.4489 22.1286 33.0434C21.5377 33.6376 20.8331 33.93 20.0149 33.9204L3.06073 33.7781C2.24917 33.7621 1.5339 33.4619 0.914917 32.8774C0.295938 32.293 -0.00557312 31.595 0.0103839 30.7834L5.42013e-05 3.00348C0.0160112 2.19192 0.315698 1.48765 0.899117 0.890684C1.48297 0.293516 2.17571 -0.00337013 2.97735 2.8759e-05L20.0896 0.147556ZM20.0384 3.16747L3.11376 3.08935L3.065 30.7408L19.9723 30.8658L20.0384 3.16747Z" fill="black"/>
</svg>
